<svg width="375" height="129" viewBox="0 0 375 129" fill="none" xmlns="http://www.w3.org/2000/svg">
<g opacity="0.25">
<path d="M239 0.5C312.161 0.5 378.385 4.97615 426.309 12.21C450.274 15.8275 469.642 20.1318 483.007 24.9014C489.692 27.2872 494.846 29.779 498.319 32.3408C501.806 34.9124 503.5 37.4787 503.5 40C503.5 42.5213 501.806 45.0876 498.319 47.6592C494.846 50.221 489.692 52.7128 483.007 55.0986C469.642 59.8682 450.274 64.1725 426.309 67.79C378.385 75.0238 312.161 79.5 239 79.5C165.839 79.5 99.6154 75.0238 51.6914 67.79C27.7255 64.1725 8.35816 59.8682 -5.00684 55.0986C-11.6923 52.7128 -16.8463 50.221 -20.3193 47.6592C-23.8055 45.0876 -25.5 42.5213 -25.5 40C-25.5 37.4787 -23.8055 34.9124 -20.3193 32.3408C-16.8463 29.779 -11.6923 27.2872 -5.00684 24.9014C8.35816 20.1318 27.7255 15.8275 51.6914 12.21C99.6154 4.97615 165.839 0.5 239 0.5Z" stroke="white"/>
<path d="M239 12.5C312.161 12.5 378.385 16.9762 426.309 24.21C450.274 27.8275 469.642 32.1318 483.007 36.9014C489.692 39.2872 494.846 41.779 498.319 44.3408C501.806 46.9124 503.5 49.4787 503.5 52C503.5 54.5213 501.806 57.0876 498.319 59.6592C494.846 62.221 489.692 64.7128 483.007 67.0986C469.642 71.8682 450.274 76.1725 426.309 79.79C378.385 87.0238 312.161 91.5 239 91.5C165.839 91.5 99.6154 87.0238 51.6914 79.79C27.7255 76.1725 8.35816 71.8682 -5.00684 67.0986C-11.6923 64.7128 -16.8463 62.221 -20.3193 59.6592C-23.8055 57.0876 -25.5 54.5213 -25.5 52C-25.5 49.4787 -23.8055 46.9124 -20.3193 44.3408C-16.8463 41.779 -11.6923 39.2872 -5.00684 36.9014C8.35816 32.1318 27.7255 27.8275 51.6914 24.21C99.6154 16.9762 165.839 12.5 239 12.5Z" stroke="white"/>
<path d="M239 25.5C312.161 25.5 378.385 29.9762 426.309 37.21C450.274 40.8275 469.642 45.1318 483.007 49.9014C489.692 52.2872 494.846 54.779 498.319 57.3408C501.806 59.9124 503.5 62.4787 503.5 65C503.5 67.5213 501.806 70.0876 498.319 72.6592C494.846 75.221 489.692 77.7128 483.007 80.0986C469.642 84.8682 450.274 89.1725 426.309 92.79C378.385 100.024 312.161 104.5 239 104.5C165.839 104.5 99.6154 100.024 51.6914 92.79C27.7255 89.1725 8.35816 84.8682 -5.00684 80.0986C-11.6923 77.7128 -16.8463 75.221 -20.3193 72.6592C-23.8055 70.0876 -25.5 67.5213 -25.5 65C-25.5 62.4787 -23.8055 59.9124 -20.3193 57.3408C-16.8463 54.779 -11.6923 52.2872 -5.00684 49.9014C8.35816 45.1318 27.7255 40.8275 51.6914 37.21C99.6154 29.9762 165.839 25.5 239 25.5Z" stroke="white"/>
<path d="M239 37.5C312.161 37.5 378.385 41.9762 426.309 49.21C450.274 52.8275 469.642 57.1318 483.007 61.9014C489.692 64.2872 494.846 66.779 498.319 69.3408C501.806 71.9124 503.5 74.4787 503.5 77C503.5 79.5213 501.806 82.0876 498.319 84.6592C494.846 87.221 489.692 89.7128 483.007 92.0986C469.642 96.8682 450.274 101.173 426.309 104.79C378.385 112.024 312.161 116.5 239 116.5C165.839 116.5 99.6154 112.024 51.6914 104.79C27.7255 101.173 8.35816 96.8682 -5.00684 92.0986C-11.6923 89.7128 -16.8463 87.221 -20.3193 84.6592C-23.8055 82.0876 -25.5 79.5213 -25.5 77C-25.5 74.4787 -23.8055 71.9124 -20.3193 69.3408C-16.8463 66.779 -11.6923 64.2872 -5.00684 61.9014C8.35816 57.1318 27.7255 52.8275 51.6914 49.21C99.6154 41.9762 165.839 37.5 239 37.5Z" stroke="white"/>
<path d="M239 49.5C312.161 49.5 378.385 53.9762 426.309 61.21C450.274 64.8275 469.642 69.1318 483.007 73.9014C489.692 76.2872 494.846 78.779 498.319 81.3408C501.806 83.9124 503.5 86.4787 503.5 89C503.5 91.5213 501.806 94.0876 498.319 96.6592C494.846 99.221 489.692 101.713 483.007 104.099C469.642 108.868 450.274 113.173 426.309 116.79C378.385 124.024 312.161 128.5 239 128.5C165.839 128.5 99.6154 124.024 51.6914 116.79C27.7255 113.173 8.35816 108.868 -5.00684 104.099C-11.6923 101.713 -16.8463 99.221 -20.3193 96.6592C-23.8055 94.0876 -25.5 91.5213 -25.5 89C-25.5 86.4787 -23.8055 83.9124 -20.3193 81.3408C-16.8463 78.779 -11.6923 76.2872 -5.00684 73.9014C8.35816 69.1318 27.7255 64.8275 51.6914 61.21C99.6154 53.9762 165.839 49.5 239 49.5Z" stroke="white"/>
</g>
</svg>
